<svg id="Layer_1" data-name="Layer 1" xmlns="http://www.w3.org/2000/svg" viewBox="0 0 820.62 786.66"><defs><style>.cls-1{fill:#4e5159;}.cls-2{fill:#31363d;}.cls-3{fill:#f9af1d;}.cls-4{fill:#f49723;}</style></defs><title>Logo4</title><path class="cls-1" d="M155.83,571.39c78.81-99.18,262.95-331.86,262.95-331.86L526,332.26,310.64,601.14c20.1,18,61.19,53.91,61.19,53.91-8.68,9.41-25.34,4.52-35.77,1.26-57.61-18-112.77-42.09-166.86-68.7C162.66,584.4,157.59,579,155.83,571.39Z" transform="translate(-111.06 -239.53)"/><path class="cls-1" d="M699.72,712.35c10.35-14.73,19-26.51,31.68-44.56L587.31,553c15.32-44.85,30.73-90,48-140.6L931.67,646.64c-18.86,22.06-37.8,44.33-55.39,64.89C817.09,735.69,760.35,735,699.72,712.35Z" transform="translate(-111.06 -239.53)"/><path class="cls-2" d="M699.72,712.35c75.95,4.22,136.31,2,176.56-.82C793,816.23,711.15,919.22,626.09,1026.19L515.21,939.43C576.71,864,639.07,786.71,699.72,712.35Z" transform="translate(-111.06 -239.53)"/><path class="cls-2" d="M156.33,571.21a1405.57,1405.57,0,0,0,215.5,83.84l83.59,63.1L406.18,857.88,111.06,624.6C126.65,606.07,141.73,588.55,156.33,571.21Z" transform="translate(-111.06 -239.53)"/><path class="cls-3" d="M512.72,694.72,383.48,586.88C453.13,500.28,613.05,301,613.05,301c-24.77,75.83-60.74,186.12-86.45,264.86L656.32,671.87l-31,37.44C584.76,727.64,547.94,717.33,512.72,694.72Z" transform="translate(-111.06 -239.53)"/><path class="cls-4" d="M512.72,694.72l-8.2-6.85c43,8.9,89.6,15.18,123.05,18.6L431.63,964C455.46,884.91,488.89,773.8,512.72,694.72Z" transform="translate(-111.06 -239.53)"/></svg>