<?xml version="1.0" standalone="no"?>
<!DOCTYPE svg PUBLIC "-//W3C//DTD SVG 20010904//EN"
 "http://www.w3.org/TR/2001/REC-SVG-20010904/DTD/svg10.dtd">
<svg version="1.0" xmlns="http://www.w3.org/2000/svg"
 width="116.000000pt" height="116.000000pt" viewBox="0 0 116.000000 116.000000"
 preserveAspectRatio="xMidYMid meet">
<metadata>
Created by potrace 1.11, written by Peter Selinger 2001-2013
</metadata>
<g transform="translate(0.000000,116.000000) scale(0.100000,-0.100000)"
fill="#000000" stroke="none">
<path d="M240 874 c-107 -134 -200 -252 -207 -262 -11 -15 10 -35 183 -172
108 -85 199 -156 203 -158 7 -2 71 161 71 180 0 4 -45 42 -99 86 l-99 79 150
187 c83 103 146 191 142 195 -31 26 -142 111 -145 110 -2 0 -92 -110 -199
-245z"/>
<path d="M603 908 c-54 -68 -100 -125 -103 -128 -3 -3 -28 -34 -55 -69 l-50
-63 26 -22 c14 -11 49 -41 78 -66 30 -25 58 -48 64 -52 11 -7 -6 -72 -69 -266
-19 -57 -34 -106 -34 -109 0 -4 30 34 68 84 37 49 79 105 94 124 15 19 54 69
87 112 l60 79 -87 70 c-48 39 -88 72 -89 73 -1 0 24 81 56 178 32 97 57 177
55 177 -1 0 -47 -55 -101 -122z"/>
<path d="M735 868 c-2 -7 -17 -49 -33 -93 l-29 -79 98 -78 c55 -43 99 -80 99
-83 0 -3 -63 -84 -140 -180 -78 -97 -143 -181 -146 -189 -3 -9 4 -20 18 -27
13 -7 44 -30 70 -52 41 -35 50 -38 64 -26 9 7 78 90 153 184 75 93 144 179
153 190 98 118 105 129 94 139 -6 6 -42 36 -81 66 -38 30 -77 60 -85 67 -40
36 -218 173 -224 173 -4 0 -9 -6 -11 -12z"/>
</g>
</svg>
